<svg xmlns="http://www.w3.org/2000/svg" width="46" height="22"><path fill="#2DC08D" d="M35.472 21.453l.062-.062a1.121 1.121 0 0 0 .124-.167l.048-.072 7.385-13.877c.379-.714.58-1.523.58-2.339 0-2.757-2.243-5-5-5a5.014 5.014 0 0 0-3.242 1.191l-.062.056-7.315 6.426.569.568c.037.033.077.073.123.125.339.385.955.433 1.351.116l6.595-5.796a3.05 3.05 0 0 1 1.981-.732 3.049 3.049 0 0 1 2.695 4.467l-6.79 12.752L18.589 3.121a10.82 10.82 0 0 0-7.702-3.19c-2.91 0-5.645 1.133-7.701 3.19A10.818 10.818 0 0 0 0 10.822c0 2.912 1.132 5.647 3.186 7.701a10.812 10.812 0 0 0 7.701 3.19c2.891 0 5.614-1.121 7.666-3.155l4.116-3.617-.56-.561a1.343 1.343 0 0 1-.13-.131c-.342-.389-.993-.434-1.384-.09l-3.343 2.938c-1.733 1.731-3.978 2.66-6.365 2.66a8.872 8.872 0 0 1-6.319-2.617c-1.685-1.685-2.614-3.93-2.614-6.319s.929-4.634 2.614-6.319a8.872 8.872 0 0 1 6.319-2.617 8.88 8.88 0 0 1 6.32 2.617l16.921 16.922.116.092a.697.697 0 0 0 .08.054l.073.039a.982.982 0 0 0 .191.068c.033.008.066.014.099.02.026.002.058.007.09.009l.078.007a.971.971 0 0 1 .111-.018.929.929 0 0 0 .173-.045.699.699 0 0 0 .09-.035c.034-.017.059-.029.084-.045a.642.642 0 0 0 .077-.051.74.74 0 0 0 .082-.066"/></svg>